<?xml version="1.0" encoding="utf-8"?>
<!-- Generator: Adobe Illustrator 24.0.2, SVG Export Plug-In . SVG Version: 6.00 Build 0)  -->
<svg version="1.1" id="Layer_1" xmlns="http://www.w3.org/2000/svg" xmlns:xlink="http://www.w3.org/1999/xlink" x="0px" y="0px"
	 viewBox="0 0 595.28 474.46" style="enable-background:new 0 0 595.28 474.46;" xml:space="preserve">
<style type="text/css">
	.st0{fill:none;stroke:#000000;stroke-width:33;stroke-linecap:round;stroke-linejoin:round;stroke-miterlimit:10;}
</style>
<path class="st0" d="M406.14,224.95"/>
<path d="M427.38,332.88c-27.25,0-52.74-16.04-63.63-40.81c-0.32-0.73-0.59-1.47-0.8-2.24l-33.9-122.41l-16.62-4.03
	c-8.86-2.15-14.29-11.07-12.14-19.93c2.15-8.86,11.07-14.29,19.92-12.14l26.04,6.32c5.82,1.41,10.41,5.86,12.01,11.63l36.13,130.48
	c6.35,13.2,21.63,21.55,36.83,19.92c9.37-1,17.8-5.59,23.72-12.92s8.63-16.54,7.63-25.91c-2.06-19.35-19.49-33.42-38.83-31.35
	c-3.75,0.4-7.37,1.38-10.75,2.9c-8.31,3.74-18.08,0.03-21.82-8.28c-3.74-8.31-0.03-18.08,8.28-21.82
	c6.57-2.96,13.57-4.85,20.79-5.62c18.14-1.93,35.95,3.31,50.14,14.77c14.19,11.46,23.07,27.76,25.01,45.9
	c1.93,18.14-3.31,35.94-14.77,50.14c-11.46,14.19-27.76,23.07-45.9,25C432.27,332.75,429.81,332.88,427.38,332.88z"/>
<path d="M164.33,343.61c-32.72,0-60.92-24.76-64.47-58.01c-3.79-35.57,22.07-67.6,57.64-71.39c17.94-1.92,34.56,6.73,40.02,9.57
	l0.54,0.28c8.12,4.14,11.33,14.08,7.19,22.2c-4.14,8.11-14.08,11.33-22.2,7.19l-0.74-0.38c-8.8-4.57-15.96-6.6-21.3-6.03
	c-17.48,1.86-30.19,17.6-28.32,35.08c1.86,17.48,17.6,30.19,35.08,28.32c13.27-1.41,19.55-11.27,30.4-30.02
	c2.19-3.78,4.45-7.69,6.91-11.67l29.13-47c3.45-5.56,9.85-8.56,16.34-7.64c6.48,0.92,11.81,5.58,13.57,11.88l7.09,25.29l32.04-51.7
	c3.45-5.57,9.87-8.57,16.37-7.64c6.49,0.93,11.81,5.61,13.56,11.93l17.38,62.76c2.43,8.78-2.72,17.87-11.5,20.3
	c-8.78,2.43-17.87-2.72-20.3-11.5l-7.32-26.42l-31.96,51.56c-3.45,5.56-9.85,8.56-16.34,7.64c-6.48-0.92-11.81-5.58-13.57-11.88
	l-7.09-25.29l-9.35,15.08c-2.2,3.55-4.33,7.24-6.4,10.81c-11.67,20.18-24.9,43.05-55.47,46.31
	C168.93,343.49,166.62,343.61,164.33,343.61z"/>
</svg>
